<?xml version="1.0" encoding="UTF-8" standalone="no"?> <svg id="Layer_1" data-name="Layer 1" xmlns="http://www.w3.org/2000/svg" viewBox="0 0 128 128"><defs><style>.cls-1{fill:#2d3e50;}.cls-2{fill:#1d75b8;}</style></defs><title>v</title><path class="cls-1" d="M109.61545,116.409,96.15771,83.75875a7.041,7.041,0,0,0-4.87735-4.14109l-.64927-.15222L71.60324,75.04477,71.26917,50.059a14.19867,14.19867,0,0,0-28.39733,0l.33408,26.84349a14.15966,14.15966,0,0,0,3.94848,9.82925,9.46844,9.46844,0,0,0,6.39647,3.53841l6.02988.6648,24.89,2.74934,13.40183,27.95618a6.43027,6.43027,0,0,0,11.7429-5.2315Z"/><circle class="cls-1" cx="56.73641" cy="16.57452" r="13.86459"/><path class="cls-2" d="M79.28594,100.56811a3.26223,3.26223,0,0,0-4.2479,1.799A26.26868,26.26868,0,1,1,36.4393,70.43542a3.262,3.262,0,0,0-3.54406-5.47748A32.93668,32.93668,0,0,0,17.96117,90.49931a32.78769,32.78769,0,0,0,30.72519,34.72886q1.01616.06234,2.02292.06189A32.75575,32.75575,0,0,0,81.085,104.816,3.26223,3.26223,0,0,0,79.28594,100.56811Z"/></svg>