<?xml version="1.0" encoding="iso-8859-1"?>
<!-- Generator: Adobe Illustrator 20.0.0, SVG Export Plug-In . SVG Version: 6.00 Build 0)  -->
<svg version="1.1" id="Layer_1_1_" xmlns="http://www.w3.org/2000/svg" xmlns:xlink="http://www.w3.org/1999/xlink" x="0px" y="0px"
	 viewBox="0 0 64 64" style="enable-background:new 0 0 64 64;" xml:space="preserve">
<g id="Guide">
	<g>
	</g>
	<g>
	</g>
	<g>
	</g>
	<g>
	</g>
	<g>
	</g>
	<g>
	</g>
	<g>
	</g>
	<g>
	</g>
	<g>
	</g>
	<g>
	</g>
	<g>
	</g>
	<g>
	</g>
	<g>
	</g>
	<g>
	</g>
	<g>
	</g>
	<g>
	</g>
	<g>
	</g>
	<g>
	</g>
	<g>
	</g>
	<g>
	</g>
	<g>
	</g>
	<g>
	</g>
	<g>
	</g>
	<g>
	</g>
	<g>
	</g>
	<g>
	</g>
	<g>
	</g>
	<g>
	</g>
	<g>
	</g>
	<g>
	</g>
	<g>
	</g>
	<g>
	</g>
	<g>
	</g>
	<g>
	</g>
	<g>
	</g>
	<g>
	</g>
</g>
<path d="M59,0H5C2.243,0,0,2.243,0,5v40.5V46v13.5C0,61.981,2.019,64,4.5,64h55c2.481,0,4.5-2.019,4.5-4.5
	c0-1.412-0.654-2.675-1.674-3.5C63.346,55.175,64,53.912,64,52.5v-7c0-0.171-0.032-0.334-0.051-0.5H64V5C64,2.243,61.757,0,59,0z
	 M5,2h54c1.654,0,3,1.346,3,3v36.762C61.284,41.282,60.425,41,59.5,41h-55c-0.925,0-1.784,0.282-2.5,0.762V5C2,3.346,3.346,2,5,2z
	 M62,52.5c0,1.379-1.122,2.5-2.5,2.5h-48C10.122,55,9,53.879,9,52.5s1.122-2.5,2.5-2.5H57v-2H11.5C9.019,48,7,50.019,7,52.5
	S9.019,57,11.5,57h48c1.378,0,2.5,1.121,2.5,2.5S60.878,62,59.5,62h-55C3.122,62,2,60.879,2,59.5V46v-0.5C2,44.121,3.122,43,4.5,43
	h55c1.378,0,2.5,1.121,2.5,2.5V52.5z"/>
<rect x="3" y="36" width="2" height="2"/>
<rect x="7" y="36" width="2" height="2"/>
<rect x="11" y="36" width="2" height="2"/>
<rect x="15" y="36" width="2" height="2"/>
<rect x="19" y="36" width="2" height="2"/>
<rect x="23" y="36" width="2" height="2"/>
<rect x="27" y="36" width="2" height="2"/>
<rect x="31" y="36" width="2" height="2"/>
<rect x="35" y="36" width="2" height="2"/>
<rect x="39" y="36" width="2" height="2"/>
<rect x="43" y="36" width="2" height="2"/>
<rect x="47" y="36" width="2" height="2"/>
<rect x="51" y="36" width="2" height="2"/>
<rect x="55" y="36" width="2" height="2"/>
<rect x="59" y="36" width="2" height="2"/>
<rect x="3" y="32" width="2" height="2"/>
<rect x="7" y="32" width="2" height="2"/>
<rect x="11" y="32" width="2" height="2"/>
<rect x="15" y="32" width="2" height="2"/>
<rect x="19" y="32" width="2" height="2"/>
<rect x="23" y="32" width="2" height="2"/>
<rect x="27" y="32" width="2" height="2"/>
<rect x="31" y="32" width="2" height="2"/>
<rect x="35" y="32" width="2" height="2"/>
<rect x="39" y="32" width="2" height="2"/>
<rect x="43" y="32" width="2" height="2"/>
<rect x="47" y="32" width="2" height="2"/>
<rect x="51" y="32" width="2" height="2"/>
<rect x="55" y="32" width="2" height="2"/>
<rect x="59" y="32" width="2" height="2"/>
<rect x="3" y="28" width="2" height="2"/>
<rect x="7" y="28" width="2" height="2"/>
<rect x="11" y="28" width="2" height="2"/>
<rect x="15" y="28" width="2" height="2"/>
<rect x="19" y="28" width="2" height="2"/>
<rect x="23" y="28" width="2" height="2"/>
<rect x="27" y="28" width="2" height="2"/>
<rect x="31" y="28" width="2" height="2"/>
<rect x="35" y="28" width="2" height="2"/>
<rect x="39" y="28" width="2" height="2"/>
<rect x="43" y="28" width="2" height="2"/>
<rect x="47" y="28" width="2" height="2"/>
<rect x="51" y="28" width="2" height="2"/>
<rect x="55" y="28" width="2" height="2"/>
<rect x="59" y="28" width="2" height="2"/>
<rect x="3" y="24" width="2" height="2"/>
<rect x="7" y="24" width="2" height="2"/>
<rect x="11" y="24" width="2" height="2"/>
<rect x="15" y="24" width="2" height="2"/>
<rect x="19" y="24" width="2" height="2"/>
<rect x="23" y="24" width="2" height="2"/>
<rect x="27" y="24" width="2" height="2"/>
<rect x="31" y="24" width="2" height="2"/>
<rect x="35" y="24" width="2" height="2"/>
<rect x="39" y="24" width="2" height="2"/>
<rect x="43" y="24" width="2" height="2"/>
<rect x="47" y="24" width="2" height="2"/>
<rect x="51" y="24" width="2" height="2"/>
<rect x="55" y="24" width="2" height="2"/>
<rect x="59" y="24" width="2" height="2"/>
<rect x="3" y="20" width="2" height="2"/>
<rect x="7" y="20" width="2" height="2"/>
<rect x="11" y="20" width="2" height="2"/>
<rect x="15" y="20" width="2" height="2"/>
<rect x="19" y="20" width="2" height="2"/>
<rect x="23" y="20" width="2" height="2"/>
<rect x="27" y="20" width="2" height="2"/>
<rect x="31" y="20" width="2" height="2"/>
<rect x="35" y="20" width="2" height="2"/>
<rect x="39" y="20" width="2" height="2"/>
<rect x="43" y="20" width="2" height="2"/>
<rect x="47" y="20" width="2" height="2"/>
<rect x="51" y="20" width="2" height="2"/>
<rect x="55" y="20" width="2" height="2"/>
<rect x="59" y="20" width="2" height="2"/>
<rect x="3" y="16" width="2" height="2"/>
<rect x="7" y="16" width="2" height="2"/>
<rect x="11" y="16" width="2" height="2"/>
<rect x="15" y="16" width="2" height="2"/>
<rect x="19" y="16" width="2" height="2"/>
<rect x="23" y="16" width="2" height="2"/>
<rect x="27" y="16" width="2" height="2"/>
<rect x="31" y="16" width="2" height="2"/>
<rect x="35" y="16" width="2" height="2"/>
<rect x="39" y="16" width="2" height="2"/>
<rect x="43" y="16" width="2" height="2"/>
<rect x="47" y="16" width="2" height="2"/>
<rect x="51" y="16" width="2" height="2"/>
<rect x="55" y="16" width="2" height="2"/>
<rect x="59" y="16" width="2" height="2"/>
<rect x="3" y="12" width="2" height="2"/>
<rect x="7" y="12" width="2" height="2"/>
<rect x="11" y="12" width="2" height="2"/>
<rect x="15" y="12" width="2" height="2"/>
<rect x="19" y="12" width="2" height="2"/>
<rect x="23" y="12" width="2" height="2"/>
<rect x="27" y="12" width="2" height="2"/>
<rect x="31" y="12" width="2" height="2"/>
<rect x="35" y="12" width="2" height="2"/>
<rect x="39" y="12" width="2" height="2"/>
<rect x="43" y="12" width="2" height="2"/>
<rect x="47" y="12" width="2" height="2"/>
<rect x="51" y="12" width="2" height="2"/>
<rect x="55" y="12" width="2" height="2"/>
<rect x="59" y="12" width="2" height="2"/>
<rect x="3" y="8" width="2" height="2"/>
<rect x="7" y="8" width="2" height="2"/>
<rect x="11" y="8" width="2" height="2"/>
<rect x="15" y="8" width="2" height="2"/>
<rect x="19" y="8" width="2" height="2"/>
<rect x="23" y="8" width="2" height="2"/>
<rect x="27" y="8" width="2" height="2"/>
<rect x="31" y="8" width="2" height="2"/>
<rect x="35" y="8" width="2" height="2"/>
<rect x="39" y="8" width="2" height="2"/>
<rect x="43" y="8" width="2" height="2"/>
<rect x="47" y="8" width="2" height="2"/>
<rect x="51" y="8" width="2" height="2"/>
<rect x="55" y="8" width="2" height="2"/>
<rect x="59" y="8" width="2" height="2"/>
<rect x="3" y="4" width="2" height="2"/>
<rect x="7" y="4" width="2" height="2"/>
<rect x="11" y="4" width="2" height="2"/>
<rect x="15" y="4" width="2" height="2"/>
<rect x="19" y="4" width="2" height="2"/>
<rect x="23" y="4" width="2" height="2"/>
<rect x="27" y="4" width="2" height="2"/>
<rect x="31" y="4" width="2" height="2"/>
<rect x="35" y="4" width="2" height="2"/>
<rect x="39" y="4" width="2" height="2"/>
<rect x="43" y="4" width="2" height="2"/>
<rect x="47" y="4" width="2" height="2"/>
<rect x="51" y="4" width="2" height="2"/>
<rect x="55" y="4" width="2" height="2"/>
<rect x="59" y="4" width="2" height="2"/>
</svg>
