<?xml version="1.0" encoding="utf-8"?>
<!-- Generator: Adobe Illustrator 23.0.2, SVG Export Plug-In . SVG Version: 6.00 Build 0)  -->
<svg version="1.1" id="Layer_1" xmlns="http://www.w3.org/2000/svg" xmlns:xlink="http://www.w3.org/1999/xlink" x="0px" y="0px"
	 viewBox="0 0 295.1227 118.622" enable-background="new 0 0 295.1227 118.622" xml:space="preserve">
<g>
	<path d="M240.2086,71.4517l-0.8838-1.4375l-0.2324,0.1523c0.0733,0.6191,0.044,1.1855-0.0849,1.709
		c0.0791,0.6074,0.7871,1.7461,1.9248,3.1987c2.9687-1.9482,5.8994-4.2329,8.748-6.9258c1.5537-1.4585,2.3877-3.3911,2.5049-5.3623
		l-10.2315,7.4038L240.2086,71.4517z"/>
	<path d="M9.1647,97.5264c15.4004,4.269,30.2549,5.7832,43.6299,5.7851c34.3916-0.0376,59.084-9.8852,60.0029-10.2192
		c0.4385-0.1748,0.8584-0.376,1.2646-0.5928c0.2452-0.0801,0.4854-0.1572,0.7393-0.2432
		c13.7559-5.8256,31.8154-4.8095,45.6523-5.0859c-0.7744-2.4346-1.166-4.9756-1.1679-7.7485
		c0.0273-3.9224,0.7246-7.7202,2.0713-11.3101l0.0576-0.1567l0.0166-0.0469l0.0215-0.0571
		c1.0234-2.5342,2.9873-4.4654,5.3955-5.4746c1.2031-0.5039,2.5156-0.7818,3.8808-0.7818c1.2832,0,2.544,0.2456,3.7422,0.7285
		c5.0752,2.0523,7.5664,7.8599,5.5537,12.9473l-0.0468,0.1357c-0.042,0.1294-0.1065,0.3399-0.1758,0.5806
		c-0.0342,0.1211-0.0694,0.2373-0.1055,0.3809c-0.2607,1.0273-0.415,2.1626-0.4111,3.0415
		c-0.0039,1.4189,0.3388,2.0102,0.3769,2.0737c0.2129,0.3027,0.418,0.5898,1.4649,1.0239c1.6015-1.1489,2.9746-2.4887,4.0293-3.9741
		c3.6435,1.5689,7.8388,3.0449,12.4736,4.0938c2.9707-0.502,6.4775-1.2549,10.5908-2.3555l1.2666-0.8818l-1.041-7.8809
		l-0.1748-1.3232l1.1533-0.667l2.3633-1.3716c-0.2695,0.0068-0.54,0.019-0.8086,0.021c-8.4062,0.0171-16.374-2.7134-22.1787-5.5537
		c-2.8975-1.4126-5.2461-2.8321-6.8242-3.8716c-0.0938-0.0615-0.1768-0.1172-0.2647-0.1763
		c-3.8916-4.0288-9.7685-7.0747-17.6621-7.5791c-21.2558-1.2383-34.3056,0.8203-55.0498,9.1817
		c-7.5322,3.7241-10.9179,7.7021-12.0947,11.8808c-8.5947,2.5127-24.7647,6.2847-44.1113,6.2622
		c-11.4893,0-24.0811-1.3071-36.9532-4.8764c-6.6533-1.8443-13.54,2.0532-15.3837,8.707
		C-1.3871,88.7939,2.5104,95.6821,9.1647,97.5264z"/>
	<path d="M219.6383,97.791c0.1524,2.5967,0.1104,4.6118,0.1104,4.6118l6.7168-2.5283c0,0-0.3506-1.8188-0.6875-4.0434
		C223.6725,96.5347,221.6295,97.1852,219.6383,97.791z"/>
	<path d="M188.0924,103.5395h-0.0039c-3.1465-0.0014-6.0098-0.2739-8.6474-0.7895l-0.2227,0.1548c0,0,4.6631,8.4375,11.751,14.9941
		c3.9004,3.6084,10.3955-6.9653,15.9736-16.7324c-7.1123,1.5771-13.3574,2.3623-18.8486,2.373H188.0924z"/>
	<path d="M219.5221,76.8359c1.0332-0.3476,2.1055-0.5234,3.1875-0.5234c3.2432,0,6.2051,1.561,8.0527,4.0771
		c0.6016,0.8194,1.087,1.7393,1.4229,2.7408c0.0342,0.102,0.0557,0.205,0.0859,0.3076c0.2491-0.1861,0.4053-0.3047,0.4053-0.3047
		s9.2852,9.2207,11.2266,10.1289c1.9414,0.9092,5.7685-6.293,5.7685-6.293s-6.792-6.0771-10.4297-10.8271
		c-1.5039-1.9624-2.4716-3.7002-2.1943-4.6865c0.1699-0.5977,0.0703-1.3565-0.2012-2.1993l3.0948-2.0507l0.8417,1.3642
		l11.2012-8.1064l24.6446-17.836l-0.6602-1.0722l19.1543-12.6895l-2.166-3.5068l-19.1563,12.6914l-0.6621-1.0713l-28.6865,17.3384
		l-9.083,5.4897l0.8418,1.3623l-2.8906,1.9131c-0.3819-0.522-0.753-1.0078-1.0948-1.4443
		c-0.9658-1.2354-1.6904-2.0615-1.6904-2.0615l-14.1143,8.1928l-5.9912,3.4781l1.0703,8.1059
		C213.9782,78.6348,216.6393,77.8061,219.5221,76.8359z"/>
	<path d="M230.5387,84.7114c-0.0654-0.3154-0.1435-0.6299-0.248-0.9428c-0.336-1.0015-0.8545-1.8882-1.501-2.6451
		c-2.0576-2.4096-5.4414-3.4638-8.6299-2.393c-4.0166,1.3525-7.6963,2.4629-11.0713,3.3735
		c-1.916,0.5166-3.7305,0.9673-5.4473,1.3564c-0.207,0.0469-0.4238,0.0997-0.6279,0.1451
		c-6.2842,1.3901-11.2148,1.9448-14.9228,1.934c-3.251,0.0025-5.5332-0.4126-7.0147-0.9096c-0.876-0.313-1.4697-0.605-1.9023-0.8823
		c-0.669-0.4292-0.9424-0.8243-1.208-1.2085c-0.4004-0.6451-0.6836-1.7266-0.6797-3.1187
		c-0.0059-1.2275,0.2265-2.5835,0.4736-3.5464c0.0869-0.3408,0.1719-0.6299,0.2432-0.854c0.0293-0.0932,0.0566-0.1782,0.0791-0.2466
		c0.0381-0.1142,0.0674-0.1923,0.0801-0.2241l0.0039-0.0127c1.6132-4.083-0.3672-8.7104-4.4434-10.3579
		c-2.3223-0.938-4.8262-0.7056-6.8613,0.4165c-1.5547,0.8569-2.8369,2.2319-3.5537,4.0059
		c-0.1817,0.5356-1.9776,4.7802-2.0225,10.8193c0.002,2.2388,0.2734,4.7588,1.1465,7.3975
		c0.0312,0.0976,0.0762,0.1967,0.1094,0.2949c1.3134,3.8569,4.2099,7.9023,8.6084,10.4839
		c2.3144,1.3808,4.9277,2.3774,7.8457,3.0263c0.8994,0.1997,1.8359,0.358,2.7939,0.4917c1.9766,0.2749,4.0664,0.4244,6.3018,0.4258
		c5.6523-0.0117,12.2588-0.8564,20.1904-2.728c0.874-0.2061,1.7627-0.4233,2.6689-0.6553c2.1026-0.5366,4.2989-1.145,6.586-1.8232
		c0.6445-0.1909,1.2881-0.3809,1.9482-0.5835c1.8604-0.5708,3.7813-1.1875,5.7686-1.8526c0.083-0.0278,0.1592-0.0644,0.2402-0.0947
		c0.6865-0.2554,1.3233-0.5888,1.8926-0.9985c1.8721-1.3496,3.0576-3.4497,3.2793-5.7207
		C230.7409,86.3052,230.7018,85.5073,230.5387,84.7114z"/>
	<path d="M179.4401,33.9302c-0.8213,10.2573,5.3769,19.457,14.5761,22.875l-1.0224-21.5498
		C187.6364,35.04,183.1657,34.6006,179.4401,33.9302z"/>
	<path d="M201.3024,58.2095c11.8369,0.3027,21.9951-8.6909,22.9785-20.6387c0.0781-0.9473,0.0889-1.8838,0.0498-2.8091
		c-6.7344,0.3125-13.665,0.5816-20.2148,0.6431L201.3024,58.2095z"/>
	<path d="M184.3307,7.437c-8.2227,10.5576-7.5098,23.9024-7.5098,23.9024c0.9063,0.2226,1.875,0.4174,2.8711,0.5991
		c4.3496,0.7925,9.5117,1.2138,15.2129,1.3823l1.1465,24.1313l0.0635,1.3296c-0.0108,2.0557,3.0801,2.1348,3.0908,0.0791
		l0.0977-0.7949l3.0419-24.6514c6.8887-0.0234,14.2989-0.2973,21.8155-0.6435c1.2031-0.0557,2.4082-0.1123,3.6152-0.1709
		C229.4254-4.1802,194.4039-5.4937,184.3307,7.437z"/>
</g>
</svg>
