<svg xmlns="http://www.w3.org/2000/svg" width="601.998" height="601.868"><defs><clipPath clipPathUnits="userSpaceOnUse" id="a"><circle cx="300" cy="200" r="200" fill="red" fill-rule="evenodd" stroke-width="1.418"/></clipPath></defs><g transform="matrix(3.6109524,0,0,3.6109524,-1389.7356,-1955.2433)"><path transform="matrix(0.9789539,0,0,0.9789539,9.8539058,13.149924)" d="m 552.55346,624.81512 c 0,46.58398 -37.76377,84.34774 -84.34774,84.34774 -46.58397,0 -84.34774,-37.76376 -84.34774,-84.34774 0,-23.35779 9.49436,-44.49805 24.83439,-59.77209 l 28.00677,22.72836 64.20045,0.34626 27.20551,-22.68776 c 15.11311,15.24315 24.44836,36.22401 24.44836,59.38523 z" fill="#ffac0f"/><g transform="matrix(0.28939733,0,0,0.28939733,381.38679,566.26648)" clip-path="url(#a)"><path d="M 0,0 H 600 V 400 H 0 Z" fill="#ce1126"/><path d="M 0,100 H 600 V 300 H 0 Z" fill="#002868"/><circle r="80" cy="200" cx="300" fill="#fff"/></g><path transform="matrix(0.7527499,0,0,0.7527499,115.76391,154.4856)" d="m 552.55346,624.81512 c 0,46.58398 -37.76377,84.34774 -84.34774,84.34774 -46.58397,0 -84.34774,-37.76376 -84.34774,-84.34774" fill="none" stroke="#ce1126" stroke-width="1.272"/><path transform="matrix(0.83608822,0,0,0.83608822,76.744437,102.41456)" d="m 552.55346,624.81512 c 0,46.58398 -37.76377,84.34774 -84.34774,84.34774 -46.58397,0 -84.34774,-37.76376 -84.34774,-84.34774" fill="none" stroke="#ce1126" stroke-width="1.145"/><path transform="matrix(0.91049743,0,0,0.91049743,41.905619,55.922564)" d="m 552.55346,624.81512 c 0,46.58398 -37.76377,84.34774 -84.34774,84.34774 -46.58397,0 -84.34774,-37.76376 -84.34774,-84.34774" fill="none" stroke="#ce1126" stroke-width="1.052"/><path d="m 468.20572,658.77754 -4.92047,0.002 0.11035,6.31218 -7.81423,0.89409 -1.35979,-5.53275 -9.56834,3.43518 2.13868,5.02973 -6.25484,3.39246 -4.11076,-3.96959 -8.00137,6.23213 3.88521,3.94308 -5.67339,6.02821 -4.90803,-3.61368 -6.15964,7.98082 c 4.16252,2.54863 7.68649,6.11896 12.50914,7.61139 v -5.5e-4 c 13.69763,-17.39189 27.63315,-23.20243 40.12748,-22.96885 12.49434,-0.23359 26.42986,5.57697 40.12749,22.96886 v 5.5e-4 l 12.50914,-7.6114 -6.15964,-7.98082 -4.90803,3.61368 -5.67339,-6.02821 3.88521,-3.94308 -8.00137,-6.23213 -4.11076,3.96959 -6.25484,-3.39246 2.13867,-5.02973 -9.56833,-3.43518 -1.35979,5.53275 -7.81423,-0.89409 0.11034,-6.31218 z" fill="#002868"/><path d="m 468.20572,678.86007 v 5.4e-4 c -0.15193,0.001 -0.30357,0.001 -0.45597,0.004 -16.21192,0.28298 -29.56744,9.608 -32.45118,21.73942 0.69903,0.30431 1.35789,0.68825 2.06673,0.9736 0.76269,0.30699 1.56625,0.53152 2.33989,0.8162 1.9012,-11.00385 13.63135,-19.63636 28.10784,-19.88904 0.13165,-0.002 0.26146,0.001 0.39269,5.6e-4 0.13123,4.9e-4 0.26104,-0.003 0.39269,-5.6e-4 14.47649,0.25268 26.20664,8.88519 28.10784,19.88904 0.77364,-0.28468 1.5772,-0.50921 2.33989,-0.8162 0.70884,-0.28535 1.36769,-0.66929 2.06673,-0.9736 -2.88373,-12.13142 -16.23926,-21.45644 -32.45118,-21.73942 -0.1524,-0.003 -0.30404,-0.003 -0.45597,-0.004 z" fill="#002868"/><circle r="84.348" cy="624.815" cx="468.206" transform="matrix(0.9789539,0,0,0.9789539,9.8539058,13.149924)" fill="none" stroke="#ce1126"/><g transform="translate(77.317587,512.29863)" clip-rule="evenodd" fill-rule="evenodd"><path transform="translate(151.27034,33.84011)" d="m 227.985,34.158 11.699,-7.407 11.698,7.407 -3.429,-13.415 10.659,-8.837 -13.818,-0.884 -5.11,-12.868 -5.111,12.868 -13.818,0.884 10.659,8.837 z" fill="#ffac0f"/><path transform="translate(151.27034,33.84011)" d="m 258.612,11.906 -10.659,8.837 -8.269,-2.686 z" fill="#ce1126"/><path transform="translate(151.27034,33.84011)" d="m 239.684,-1.846 5.11,12.868 -5.11,7.035 z" fill="#ce1126"/><path transform="translate(151.27034,33.84011)" d="m 239.684,18.057 -16.223,-5.272 -2.706,-0.879 2.706,-0.173 11.112,-0.711 z" fill="#ce1126"/><path transform="translate(151.27034,33.84011)" d="m 227.985,34.158 3.429,-13.415 8.27,-2.686 z" fill="#ce1126"/><path transform="translate(151.27034,33.84011)" d="M 251.382,34.158 239.684,26.751 V 18.057 Z" fill="#ce1126"/></g><g stroke="#ce1126"><ellipse ry="4.798" rx="3.788" cy="653.352" cx="404.314" transform="matrix(0.80074937,0.60250443,-0.66303876,0.84012684,535.98071,-222.82646)" fill="#ffac0f"/><ellipse ry="4.798" rx="3.788" cy="653.352" cx="404.314" transform="matrix(0.80074937,0.60250443,-0.66303876,0.84012684,530.17233,-218.02824)" fill="#ffac0f"/><ellipse ry="4.798" rx="3.788" cy="653.352" cx="404.314" transform="matrix(0.89088606,0.45883893,-0.51186577,0.93990794,388.89876,-218.82105)" fill="#ffac0f"/><ellipse ry="4.798" rx="3.788" cy="653.352" cx="404.314" transform="matrix(0.93685784,0.35568036,-0.40285438,0.9915351,294.29073,-204.02481)" fill="#ffac0f"/><ellipse ry="4.798" rx="3.788" cy="653.352" cx="404.314" transform="matrix(0.96279549,0.27791362,-0.3204606,1.0211457,225.93104,-184.85773)" fill="#ffac0f"/><ellipse ry="4.798" rx="3.788" cy="653.352" cx="404.314" transform="matrix(0.96279549,0.27791362,-0.3204606,1.0211457,222.90058,-178.0392)" fill="#ffac0f"/><ellipse ry="4.798" rx="3.788" cy="653.352" cx="404.314" transform="matrix(0.96279549,0.27791362,-0.3204606,1.0211457,220.3752,-170.7156)" fill="#ffac0f"/><ellipse ry="4.798" rx="3.788" cy="653.352" cx="404.314" transform="matrix(0.97540423,0.18578258,-0.25373915,0.89479418,169.65237,-45.926128)" fill="#ffac0f"/><ellipse ry="4.798" rx="3.788" cy="653.352" cx="404.314" transform="matrix(1.0018041,0.02315728,-0.05083503,1.010935,25.917726,-49.399967)" fill="#ffac0f"/><ellipse ry="4.798" rx="3.788" cy="653.352" cx="404.314" transform="matrix(1.0020622,0.00908726,-0.0343974,1.0696964,15.073835,-74.553239)" fill="#ffac0f"/><ellipse ry="4.798" rx="3.788" cy="653.352" cx="404.314" transform="matrix(0.98582894,-0.17986802,0.16775371,1.0570205,-108.92343,19.217164)" fill="#ffac0f"/><ellipse ry="4.798" rx="3.788" cy="653.352" cx="404.314" transform="matrix(0.98582894,-0.17986802,0.16775371,1.0570205,-106.90312,27.045846)" fill="#ffac0f"/><ellipse ry="4.798" rx="3.788" cy="653.352" cx="404.314" transform="rotate(-21.268449,403.83806,653.26264)" fill="#ffac0f"/><ellipse ry="4.798" rx="3.788" cy="653.352" cx="404.314" transform="rotate(-49.508557,402.12693,663.38247)" fill="#ffac0f"/><ellipse ry="4.798" rx="3.788" cy="653.352" cx="404.314" transform="rotate(-15.692314,108.72529,582.74046)" fill="#ffac0f"/><ellipse ry="4.798" rx="3.788" cy="653.352" cx="404.314" transform="rotate(-13.451669,84.23396,604.66236)" fill="#ffac0f"/><ellipse ry="4.798" rx="3.788" cy="653.352" cx="404.314" transform="rotate(-22.841607,234.4942,625.36917)" fill="#ffac0f"/><ellipse ry="4.798" rx="3.788" cy="653.352" cx="404.314" transform="rotate(-22.693633,250.35482,639.92767)" fill="#ffac0f"/><ellipse ry="4.798" rx="3.788" cy="653.352" cx="404.314" transform="rotate(-14.475127,197.41,671.18692)" fill="#ffac0f"/><ellipse ry="4.798" rx="3.788" cy="653.352" cx="404.314" transform="rotate(-23.646181,296.699,664.54792)" fill="#ffac0f"/><ellipse ry="4.798" rx="3.788" cy="653.352" cx="404.314" transform="rotate(-44.352586,357.84548,654.27036)" fill="#ffac0f"/><ellipse ry="4.798" rx="3.788" cy="653.352" cx="404.314" transform="rotate(-37.178018,361.94251,662.96208)" fill="#ffac0f"/><ellipse ry="4.798" rx="3.788" cy="653.352" cx="404.314" transform="rotate(-56.00286,383.97449,658.20529)" fill="#ffac0f"/><ellipse ry="4.798" rx="3.788" cy="653.352" cx="404.314" transform="rotate(-49.630954,391.19795,662.22796)" fill="#ffac0f"/><ellipse ry="4.798" rx="3.788" cy="653.352" cx="404.314" transform="rotate(-92.39957,380.4464,605.71964)" fill="#ffac0f"/><ellipse ry="4.798" rx="3.788" cy="653.352" cx="404.314" transform="rotate(-101.94213,385.47833,612.18271)" fill="#ffac0f"/><ellipse ry="4.798" rx="3.788" cy="653.352" cx="404.314" transform="rotate(-108.23192,388.43578,617.4441)" fill="#ffac0f"/><ellipse ry="4.798" rx="3.788" cy="653.352" cx="404.314" transform="rotate(-111.90851,390.40019,622.50993)" fill="#ffac0f"/><ellipse ry="4.798" rx="3.788" cy="653.352" cx="404.314" transform="rotate(-117.57368,392.82708,626.68874)" fill="#ffac0f"/><ellipse ry="4.798" rx="3.788" cy="653.352" cx="404.314" transform="rotate(-132.04879,397.46765,631.64445)" fill="#ffac0f"/><ellipse ry="4.798" rx="3.788" cy="653.352" cx="404.314" transform="rotate(-114.18132,394.52927,635.05126)" fill="#ffac0f"/><ellipse ry="4.798" rx="3.788" cy="653.352" cx="404.314" transform="rotate(-147.56019,401.89456,639.2923)" fill="#ffac0f"/><ellipse ry="4.798" rx="3.788" cy="653.352" cx="404.314" transform="rotate(-157.39729,403.86565,642.62905)" fill="#ffac0f"/><ellipse ry="4.798" rx="3.788" cy="653.352" cx="404.314" transform="rotate(-164.50984,405.56299,646.32098)" fill="#ffac0f"/><ellipse ry="4.798" rx="3.788" cy="653.352" cx="404.314" transform="rotate(-176.47384,408.19221,650.86887)" fill="#ffac0f"/><path d="m 433.21428,565.21933 c 2.47033,-2.63382 5.59849,-4.44534 9.01786,-5.89286" fill="none"/><path d="m 432.71411,576.43379 c 2.15735,-2.40251 4.88919,-4.05494 7.87534,-5.37534" fill="none" stroke-width=".893"/><path d="m 417.85351,566.02653 c 1.86085,-2.31781 4.21723,-3.91198 6.79296,-5.18582" fill="#ffac0f" stroke-width=".814"/></g><g transform="matrix(-1,0,0,1,936.51306,0)" stroke="#ce1126"><ellipse ry="4.798" rx="3.788" cy="653.352" cx="404.314" transform="matrix(0.80074937,0.60250443,-0.66303876,0.84012684,535.98071,-222.82646)" fill="#ffac0f"/><ellipse ry="4.798" rx="3.788" cy="653.352" cx="404.314" transform="matrix(0.80074937,0.60250443,-0.66303876,0.84012684,530.17233,-218.02824)" fill="#ffac0f"/><ellipse ry="4.798" rx="3.788" cy="653.352" cx="404.314" transform="matrix(0.89088606,0.45883893,-0.51186577,0.93990794,388.89876,-218.82105)" fill="#ffac0f"/><ellipse ry="4.798" rx="3.788" cy="653.352" cx="404.314" transform="matrix(0.93685784,0.35568036,-0.40285438,0.9915351,294.29073,-204.02481)" fill="#ffac0f"/><ellipse ry="4.798" rx="3.788" cy="653.352" cx="404.314" transform="matrix(0.96279549,0.27791362,-0.3204606,1.0211457,225.93104,-184.85773)" fill="#ffac0f"/><ellipse ry="4.798" rx="3.788" cy="653.352" cx="404.314" transform="matrix(0.96279549,0.27791362,-0.3204606,1.0211457,222.90058,-178.0392)" fill="#ffac0f"/><ellipse ry="4.798" rx="3.788" cy="653.352" cx="404.314" transform="matrix(0.96279549,0.27791362,-0.3204606,1.0211457,220.3752,-170.7156)" fill="#ffac0f"/><ellipse ry="4.798" rx="3.788" cy="653.352" cx="404.314" transform="matrix(0.97540423,0.18578258,-0.25373915,0.89479418,169.65237,-45.926128)" fill="#ffac0f"/><ellipse ry="4.798" rx="3.788" cy="653.352" cx="404.314" transform="matrix(1.0018041,0.02315728,-0.05083503,1.010935,25.917726,-49.399967)" fill="#ffac0f"/><ellipse ry="4.798" rx="3.788" cy="653.352" cx="404.314" transform="matrix(1.0020622,0.00908726,-0.0343974,1.0696964,15.073835,-74.553239)" fill="#ffac0f"/><ellipse ry="4.798" rx="3.788" cy="653.352" cx="404.314" transform="matrix(0.98582894,-0.17986802,0.16775371,1.0570205,-108.92343,19.217164)" fill="#ffac0f"/><ellipse ry="4.798" rx="3.788" cy="653.352" cx="404.314" transform="matrix(0.98582894,-0.17986802,0.16775371,1.0570205,-106.90312,27.045846)" fill="#ffac0f"/><ellipse ry="4.798" rx="3.788" cy="653.352" cx="404.314" transform="rotate(-21.268449,403.83806,653.26264)" fill="#ffac0f"/><ellipse ry="4.798" rx="3.788" cy="653.352" cx="404.314" transform="rotate(-49.508557,402.12693,663.38247)" fill="#ffac0f"/><ellipse ry="4.798" rx="3.788" cy="653.352" cx="404.314" transform="rotate(-15.692314,108.72529,582.74046)" fill="#ffac0f"/><ellipse ry="4.798" rx="3.788" cy="653.352" cx="404.314" transform="rotate(-13.451669,84.23396,604.66236)" fill="#ffac0f"/><ellipse ry="4.798" rx="3.788" cy="653.352" cx="404.314" transform="rotate(-22.841607,234.4942,625.36917)" fill="#ffac0f"/><ellipse ry="4.798" rx="3.788" cy="653.352" cx="404.314" transform="rotate(-22.693633,250.35482,639.92767)" fill="#ffac0f"/><ellipse ry="4.798" rx="3.788" cy="653.352" cx="404.314" transform="rotate(-14.475127,197.41,671.18692)" fill="#ffac0f"/><ellipse ry="4.798" rx="3.788" cy="653.352" cx="404.314" transform="rotate(-23.646181,296.699,664.54792)" fill="#ffac0f"/><ellipse ry="4.798" rx="3.788" cy="653.352" cx="404.314" transform="rotate(-44.352586,357.84548,654.27036)" fill="#ffac0f"/><ellipse ry="4.798" rx="3.788" cy="653.352" cx="404.314" transform="rotate(-37.178018,361.94251,662.96208)" fill="#ffac0f"/><ellipse ry="4.798" rx="3.788" cy="653.352" cx="404.314" transform="rotate(-56.00286,383.97449,658.20529)" fill="#ffac0f"/><ellipse ry="4.798" rx="3.788" cy="653.352" cx="404.314" transform="rotate(-49.630954,391.19795,662.22796)" fill="#ffac0f"/><ellipse ry="4.798" rx="3.788" cy="653.352" cx="404.314" transform="rotate(-92.39957,380.4464,605.71964)" fill="#ffac0f"/><ellipse ry="4.798" rx="3.788" cy="653.352" cx="404.314" transform="rotate(-101.94213,385.47833,612.18271)" fill="#ffac0f"/><ellipse ry="4.798" rx="3.788" cy="653.352" cx="404.314" transform="rotate(-108.23192,388.43578,617.4441)" fill="#ffac0f"/><ellipse ry="4.798" rx="3.788" cy="653.352" cx="404.314" transform="rotate(-111.90851,390.40019,622.50993)" fill="#ffac0f"/><ellipse ry="4.798" rx="3.788" cy="653.352" cx="404.314" transform="rotate(-117.57368,392.82708,626.68874)" fill="#ffac0f"/><ellipse ry="4.798" rx="3.788" cy="653.352" cx="404.314" transform="rotate(-132.04879,397.46765,631.64445)" fill="#ffac0f"/><ellipse ry="4.798" rx="3.788" cy="653.352" cx="404.314" transform="rotate(-114.18132,394.52927,635.05126)" fill="#ffac0f"/><ellipse ry="4.798" rx="3.788" cy="653.352" cx="404.314" transform="rotate(-147.56019,401.89456,639.2923)" fill="#ffac0f"/><ellipse ry="4.798" rx="3.788" cy="653.352" cx="404.314" transform="rotate(-157.39729,403.86565,642.62905)" fill="#ffac0f"/><ellipse ry="4.798" rx="3.788" cy="653.352" cx="404.314" transform="rotate(-164.50984,405.56299,646.32098)" fill="#ffac0f"/><ellipse ry="4.798" rx="3.788" cy="653.352" cx="404.314" transform="rotate(-176.47384,408.19221,650.86887)" fill="#ffac0f"/><path d="m 433.21428,565.21933 c 2.47033,-2.63382 5.59849,-4.44534 9.01786,-5.89286" fill="none"/><path d="m 431.99983,577.14807 c 2.15735,-2.40251 4.88919,-4.05494 7.87534,-5.37534" fill="none" stroke-width=".893"/><path d="m 417.85351,566.02653 c 1.86085,-2.31781 4.21723,-3.91198 6.79296,-5.18582" fill="#ffac0f" stroke-width=".814"/></g></g></svg>